<svg width="720" height="520" viewBox="0 0 720 520" fill="none" xmlns="http://www.w3.org/2000/svg">
  <rect width="720" height="520" rx="36" fill="#FBF8F2"/>
  <rect x="24" y="24" width="672" height="472" rx="28" fill="#FFFDF8" stroke="#E9DED1"/>
  <text x="52" y="74" fill="#9D3B18" font-family="Manrope, sans-serif" font-size="24" font-weight="800">CHINA JOURNEY MAP</text>
  <text x="52" y="104" fill="#665A4D" font-family="Manrope, sans-serif" font-size="15" font-weight="600">Study and growth path across South China, East China, and North China</text>
  <rect x="62" y="126" width="596" height="312" rx="24" fill="#FAF4EC" stroke="#E9DED1"/>
  <path d="M132 203 C156 176 190 162 230 156 C256 137 289 126 326 124 C363 122 391 131 420 126 C447 121 475 108 508 110 C541 112 571 126 595 151 C615 171 623 196 617 218 C612 236 615 249 627 264 C639 280 639 299 627 313 C612 331 586 338 558 336 C533 335 519 341 507 355 C491 374 467 386 439 390 C413 393 388 391 367 381 C348 372 330 368 311 375 C286 385 258 382 238 369 C217 355 197 352 173 354 C148 356 127 348 115 332 C104 317 101 298 108 280 C116 259 115 242 106 226 C98 211 104 196 118 188 C123 186 128 192 132 203Z" fill="#F1E0D0" stroke="#D7B79E" stroke-width="3"/>
  <path d="M476 193 C487 184 502 182 517 186 C531 190 541 199 548 211 C553 220 552 232 544 240 C535 249 521 250 509 245 C497 240 486 238 476 240" fill="#F6EBDD" stroke="#D7B79E" stroke-width="2.5"/>
  <path d="M480 165 C504 155 531 155 552 164 C570 171 582 184 590 199" stroke="#C55C33" stroke-width="2.5" stroke-linecap="round" stroke-dasharray="5 7"/>
  <path d="M478 192 C490 207 493 230 485 251 C478 269 468 286 457 307" stroke="#C55C33" stroke-width="2.5" stroke-linecap="round" stroke-dasharray="5 7"/>
  <path d="M456 307 C437 314 420 324 402 337 C387 347 374 355 364 364" stroke="#C55C33" stroke-width="2.5" stroke-linecap="round" stroke-dasharray="5 7"/>
  <path d="M364 364 C355 368 347 373 339 379" stroke="#C55C33" stroke-width="2.5" stroke-linecap="round" stroke-dasharray="5 7"/>
  <circle cx="476" cy="192" r="9" fill="#C55C33"/>
  <circle cx="456" cy="307" r="9" fill="#C55C33"/>
  <circle cx="364" cy="364" r="9" fill="#C55C33"/>
  <circle cx="339" cy="379" r="8" fill="#F29867"/>
  <path d="M476 192L565 150" stroke="#9D3B18" stroke-width="2"/>
  <path d="M456 307L530 302" stroke="#9D3B18" stroke-width="2"/>
  <path d="M364 364L188 406" stroke="#9D3B18" stroke-width="2"/>
  <path d="M339 379L470 404" stroke="#9D3B18" stroke-width="2"/>
  <rect x="566" y="128" width="88" height="40" rx="14" fill="#FFF4EC" stroke="#E7C6B2"/>
  <text x="580" y="153" fill="#241D16" font-family="Manrope, sans-serif" font-size="16" font-weight="800">Tianjin</text>
  <text x="580" y="182" fill="#665A4D" font-family="IBM Plex Mono, monospace" font-size="12">2023-now</text>
  <rect x="531" y="280" width="104" height="40" rx="14" fill="#FFF4EC" stroke="#E7C6B2"/>
  <text x="545" y="305" fill="#241D16" font-family="Manrope, sans-serif" font-size="16" font-weight="800">Nanjing</text>
  <text x="545" y="334" fill="#665A4D" font-family="IBM Plex Mono, monospace" font-size="12">2014-2023</text>
  <rect x="122" y="384" width="126" height="40" rx="14" fill="#FFF4EC" stroke="#E7C6B2"/>
  <text x="136" y="409" fill="#241D16" font-family="Manrope, sans-serif" font-size="16" font-weight="800">Xiangtan</text>
  <text x="136" y="438" fill="#665A4D" font-family="IBM Plex Mono, monospace" font-size="12">2011-2014</text>
  <rect x="471" y="382" width="128" height="40" rx="14" fill="#FFF4EC" stroke="#E7C6B2"/>
  <text x="485" y="407" fill="#241D16" font-family="Manrope, sans-serif" font-size="16" font-weight="800">Hengdong</text>
  <text x="485" y="436" fill="#665A4D" font-family="IBM Plex Mono, monospace" font-size="12">hometown</text>
  <rect x="52" y="454" width="616" height="28" rx="14" fill="#F8F2EA"/>
  <text x="74" y="473" fill="#665A4D" font-family="Manrope, sans-serif" font-size="13" font-weight="700">Route: Xiangtan - Hengdong - Nanjing - Tianjin</text>
</svg>
